<svg width="169" height="193" xmlns="http://www.w3.org/2000/svg" xmlns:xlink="http://www.w3.org/1999/xlink" xml:space="preserve" overflow="hidden"><defs><clipPath id="clip0"><rect x="413" y="99" width="169" height="193"/></clipPath></defs><g clip-path="url(#clip0)" transform="translate(-413 -99)"><path d="M191.897 76.9983C217.327 77.4757 345.665 140.323 345.648 170.253 346.24 201.337 222.524 264.784 194.788 266.972 170.502 267.197 172.239 77.351 191.897 76.9983Z" stroke="#000000" stroke-width="8.03766" fill="#FFFFFF" fill-rule="evenodd" transform="matrix(1.00124 0 0 1 235.92 22.0017)"/><path d="M246.798 140.547C246.798 135.719 250.712 131.805 255.54 131.805L255.54 131.805C260.368 131.805 264.282 135.719 264.282 140.547L264.282 148.953C264.282 153.781 260.368 157.695 255.54 157.695L255.54 157.695C250.712 157.695 246.798 153.781 246.798 148.953Z" stroke="#000000" stroke-width="8.03766" fill="#FFFFFF" fill-rule="evenodd" transform="matrix(1.00124 0 0 1 235.92 22.0017)"/><path d="M272.016 191.319C272.016 186.491 275.929 182.577 280.758 182.577L280.758 182.577C285.586 182.577 289.5 186.491 289.5 191.319L289.5 261.256C289.5 266.084 285.586 269.998 280.758 269.998L280.758 269.998C275.929 269.998 272.016 266.084 272.016 261.256Z" stroke="#000000" stroke-width="8.03766" fill="#FFFFFF" fill-rule="evenodd" transform="matrix(1.00124 0 0 1 235.92 22.0017)"/><path d="M198.716 131.132C198.716 126.304 202.63 122.39 207.458 122.39L207.458 122.39C212.286 122.39 216.2 126.304 216.2 131.132L216.2 214.183C216.2 219.011 212.286 222.925 207.458 222.925L207.458 222.925C202.63 222.925 198.716 219.011 198.716 214.183Z" stroke="#000000" stroke-width="8.03766" fill="#FFFFFF" fill-rule="evenodd" transform="matrix(1.00124 0 0 1 235.92 22.0017)"/><path d="M246.798 169.463C246.798 164.635 250.712 160.721 255.54 160.721L255.54 160.721C260.368 160.721 264.282 164.635 264.282 169.463L264.282 221.58C264.282 226.408 260.368 230.322 255.54 230.322L255.54 230.322C250.712 230.322 246.798 226.408 246.798 221.58Z" stroke="#000000" stroke-width="8.03766" fill="#FFFFFF" fill-rule="evenodd" transform="matrix(1.00124 0 0 1 235.92 22.0017)"/><path d="M247.134 242.091C247.134 237.263 251.048 233.348 255.876 233.348L255.876 233.348C260.704 233.348 264.618 237.263 264.618 242.091L264.618 246.462C264.618 251.29 260.704 255.204 255.876 255.204L255.876 255.204C251.048 255.204 247.134 251.29 247.134 246.462Z" stroke="#000000" stroke-width="8.03766" fill="#FFFFFF" fill-rule="evenodd" transform="matrix(1.00124 0 0 1 235.92 22.0017)"/><path d="M222.925 187.62C222.925 182.792 226.839 178.878 231.667 178.878L231.667 178.878C236.495 178.878 240.409 182.792 240.409 187.62L240.409 187.62C240.409 192.448 236.495 196.362 231.667 196.362L231.667 196.362C226.839 196.362 222.925 192.448 222.925 187.62Z" stroke="#000000" stroke-width="8.03766" fill="#FFFFFF" fill-rule="evenodd" transform="matrix(1.00124 0 0 1 235.92 22.0017)"/><path d="M222.925 208.467C222.925 203.639 226.839 199.725 231.667 199.725L231.667 199.725C236.496 199.725 240.409 203.639 240.409 208.467L240.409 252.178C240.409 257.006 236.496 260.92 231.667 260.92L231.667 260.92C226.839 260.92 222.925 257.006 222.925 252.178Z" stroke="#000000" stroke-width="8.03766" fill="#FFFFFF" fill-rule="evenodd" transform="matrix(1.00124 0 0 1 235.92 22.0017)"/><path d="M198.716 234.021C198.716 229.193 202.63 225.279 207.458 225.279L207.458 225.279C212.286 225.279 216.2 229.193 216.2 234.021L216.2 247.134C216.2 251.962 212.286 255.876 207.458 255.876L207.458 255.876C202.63 255.876 198.716 251.962 198.716 247.134Z" stroke="#000000" stroke-width="8.03766" fill="#FFFFFF" fill-rule="evenodd" transform="matrix(1.00124 0 0 1 235.92 22.0017)"/></g></svg>