<svg width="596" height="596" xmlns="http://www.w3.org/2000/svg" xmlns:xlink="http://www.w3.org/1999/xlink" xml:space="preserve" overflow="hidden"><defs><clipPath id="clip0"><rect x="330" y="348" width="291" height="470"/></clipPath><clipPath id="clip1"><rect x="330" y="348" width="291" height="470"/></clipPath></defs><g transform="translate(-330 -330)"><g clip-path="url(#clip0)"><g clip-path="url(#clip1)"><g><path d="M94.0493-253.397 170.068-177.378C173.967-173.48 175.835-168.931 175.672-163.734 175.51-158.536 173.48-153.987 169.581-150.089 165.683-146.516 161.135-144.648 155.937-144.485 150.739-144.323 146.191-146.191 142.292-150.089L52.6286-239.753C50.6794-241.702 49.2987-243.814 48.4866-246.088 47.6744-248.362 47.2683-250.798 47.2683-253.397 47.2683-255.996 47.6744-258.433 48.4866-260.707 49.2987-262.981 50.6794-265.092 52.6286-267.042L142.292-356.705C145.866-360.279 150.333-362.065 155.693-362.065 161.053-362.065 165.683-360.279 169.581-356.705 173.48-352.807 175.429-348.177 175.429-342.817 175.429-337.457 173.48-332.827 169.581-328.929L94.0493-253.397ZM211.002-233.905 267.529-177.378C271.427-173.48 273.295-168.931 273.133-163.734 272.97-158.536 270.94-153.987 267.042-150.089 263.143-146.516 258.595-144.648 253.397-144.485 248.199-144.323 243.651-146.191 239.753-150.089L150.089-239.753C148.14-241.702 146.759-243.814 145.947-246.088 145.135-248.362 144.729-250.798 144.729-253.397 144.729-255.996 145.135-258.433 145.947-260.707 146.759-262.981 148.14-265.092 150.089-267.042L239.753-356.705C243.326-360.279 247.793-362.065 253.153-362.065 258.514-362.065 263.143-360.279 267.042-356.705 270.94-352.807 272.889-348.177 272.889-342.817 272.889-337.457 270.94-332.827 267.042-328.929L211.002-272.889 331.365-272.889C358.329-272.889 381.314-263.387 400.319-244.382 419.324-225.377 428.826-202.393 428.826-175.429L428.826-116.953C428.826-111.43 426.958-106.8 423.222-103.064 419.486-99.3284 414.857-97.4604 409.334-97.4604 403.811-97.4604 399.182-99.3284 395.446-103.064 391.71-106.8 389.842-111.43 389.842-116.953L389.842-175.429C389.842-191.672 384.157-205.479 372.786-216.849 361.416-228.22 347.609-233.905 331.365-233.905L211.002-233.905Z" fill="#FFFFFF" transform="matrix(1 0 0 1.00041 330 817)"/></g></g></g><path d="M578.333 851.5C551.017 851.5 527.632 841.773 508.179 822.321 488.727 802.868 479 779.483 479 752.167 479 724.85 488.727 701.465 508.179 682.013 527.632 662.56 551.017 652.833 578.333 652.833 587.853 652.833 596.648 653.971 604.719 656.248 612.79 658.525 620.55 661.939 628 666.492L628 429.333C628 422.297 630.38 416.4 635.14 411.64 639.9 406.88 645.797 404.5 652.833 404.5L752.167 404.5C759.203 404.5 765.101 406.88 769.86 411.64 774.62 416.4 777 422.297 777 429.333L777 479C777 486.036 774.62 491.934 769.86 496.694 765.101 501.454 759.203 503.833 752.167 503.833L677.667 503.833 677.667 752.167C677.667 779.483 667.94 802.868 648.488 822.321 629.035 841.773 605.65 851.5 578.333 851.5Z" stroke="#000000" stroke-width="10.3353" fill="#FFFFFF"/></g></svg>