<svg width="502" height="574" xmlns="http://www.w3.org/2000/svg" xmlns:xlink="http://www.w3.org/1999/xlink" xml:space="preserve" overflow="hidden"><defs><clipPath id="clip0"><rect x="526" y="229" width="502" height="574"/></clipPath></defs><g clip-path="url(#clip0)" transform="translate(-526 -229)"><path d="M570.72 229C646.351 230.42 1028.04 417.333 1027.99 506.347 1029.75 598.796 661.806 787.491 579.319 794 507.088 794.67 512.256 230.049 570.72 229Z" fill="#000082" fill-rule="evenodd"/><path d="M734 418C734 403.641 745.641 392 760 392L760 392C774.359 392 786 403.641 786 418L786 443C786 457.359 774.359 469 760 469L760 469C745.641 469 734 457.359 734 443Z" fill="#FFFFFF" fill-rule="evenodd"/><path d="M809 569C809 554.641 820.64 543 835 543L835 543C849.359 543 861 554.641 861 569L861 777C861 791.359 849.359 803 835 803L835 803C820.64 803 809 791.359 809 777Z" fill="#FFFFFF" fill-rule="evenodd"/><path d="M591 390C591 375.641 602.641 364 617 364L617 364C631.359 364 643 375.641 643 390L643 637C643 651.359 631.359 663 617 663L617 663C602.641 663 591 651.359 591 637Z" fill="#FFFFFF" fill-rule="evenodd"/><path d="M734 504C734 489.641 745.641 478 760 478L760 478C774.36 478 786 489.641 786 504L786 659C786 673.36 774.359 685 760 685L760 685C745.641 685 734 673.359 734 659Z" fill="#FFFFFF" fill-rule="evenodd"/><path d="M735 720C735 705.641 746.641 694 761 694L761 694C775.359 694 787 705.641 787 720L787 733C787 747.359 775.359 759 761 759L761 759C746.641 759 735 747.359 735 733Z" fill="#FFFFFF" fill-rule="evenodd"/><path d="M663 558C663 543.641 674.641 532 689 532L689 532C703.359 532 715 543.641 715 558L715 558C715 572.359 703.359 584 689 584L689 584C674.641 584 663 572.359 663 558Z" fill="#FFFFFF" fill-rule="evenodd"/><path d="M663 620C663 605.641 674.641 594 689 594L689 594C703.36 594 715 605.641 715 620L715 750C715 764.359 703.36 776 689 776L689 776C674.641 776 663 764.359 663 750Z" fill="#FFFFFF" fill-rule="evenodd"/><path d="M591 696C591 681.641 602.641 670 617 670L617 670C631.359 670 643 681.641 643 696L643 735C643 749.359 631.359 761 617 761L617 761C602.641 761 591 749.359 591 735Z" fill="#FFFFFF" fill-rule="evenodd"/></g></svg>