<svg width="602" height="644" xmlns="http://www.w3.org/2000/svg" xmlns:xlink="http://www.w3.org/1999/xlink" xml:space="preserve" overflow="hidden"><defs><clipPath id="clip0"><rect x="0" y="0" width="602" height="644"/></clipPath></defs><g clip-path="url(#clip0)"><path d="M257.809 16.4999C282.318-5.4999 319.485-5.4999 343.996 16.4999L580.418 228.718C594.031 240.935 601.805 258.355 601.805 276.636L601.805 579.584C601.805 615.16 572.933 644 537.326 644L429.861 644C394.251 644 365.382 615.16 365.382 579.584L365.382 429.272C365.382 417.41 355.757 407.799 343.889 407.799L257.916 407.799C246.046 407.799 236.423 417.41 236.423 429.272L236.423 579.584C236.423 615.16 207.555 644 171.944 644L64.4791 644C28.8682 644 0 615.16 0 579.584L0 276.636C0 258.355 7.77452 240.935 21.3856 228.718L257.809 16.4999Z" fill="#FFFFFF" fill-rule="evenodd" transform="scale(1.00032 1)"/></g></svg>